<?xml version="1.0" encoding="UTF-8" standalone="no"?>
<svg width="101px" height="90px" viewBox="0 0 101 90" version="1.1" xmlns="http://www.w3.org/2000/svg" xmlns:xlink="http://www.w3.org/1999/xlink" xmlns:sketch="http://www.bohemiancoding.com/sketch/ns">
    <!-- Generator: Sketch 3.2.2 (9983) - http://www.bohemiancoding.com/sketch -->
    <title>logotype_chez_felix_vertical</title>
    <desc>Created with Sketch.</desc>
    <defs></defs>
    <g id="Page-1" stroke="none" stroke-width="1" fill="none" fill-rule="evenodd" sketch:type="MSPage">
        <g id="logotype_chez_felix_vertical" sketch:type="MSLayerGroup" fill="#22272A">
            <path d="M40,42.9775785 L40,57 L52.0500091,57 L52.0500091,57 C52.0172151,56.838445 52,56.6712329 52,56.5 C52,55.1192881 53.1192881,54 54.5,54 C55.8807119,54 57,55.1192881 57,56.5 C57,56.6712329 56.9827849,56.838445 56.9499909,57 L59,57 L59,0 L49,0 C49,1.65685425 47.6568542,3 46,3 C44.3431458,3 43,1.65685425 43,0 L43,0 L40,0 L40,32.0224215 C40.164681,32.0075813 40.3314552,32 40.5,32 C43.5375661,32 46,34.4624339 46,37.5 C46,40.5375661 43.5375661,43 40.5,43 C40.3314552,43 40.164681,42.9924187 40,42.9775785 Z M52.5,24 C53.3284271,24 54,23.3284271 54,22.5 C54,21.6715729 53.3284271,21 52.5,21 C51.6715729,21 51,21.6715729 51,22.5 C51,23.3284271 51.6715729,24 52.5,24 Z" id="Rectangle-1" sketch:type="MSShapeGroup"></path>
            <path d="M10.22,85.52 C9.65,87.35 8.54,88.64 6.29,88.64 C4.76,88.64 3.59,88.01 2.81,86.75 C2.21,85.7 1.91,84.32 1.91,82.73 C1.91,79.37 3.17,76.43 6.23,76.43 C8.09,76.43 8.9,77.42 8.9,78.92 C8.9,79.1 8.84,79.49 8.78,79.7 C8.75,79.91 8.84,80.09 8.96,80.18 C9.08,80.27 9.26,80.3 9.41,80.3 C10.01,80.3 10.34,79.79 10.34,79.19 C10.34,77.03 8.42,76.01 6.2,76.01 C1.97,76.01 0.05,79.52 0.05,82.91 C0.05,85.16 0.56,86.66 1.46,87.71 C2.39,88.82 3.68,89.39 5.6,89.39 C8.03,89.39 9.95,88.07 10.58,85.7 L10.22,85.52 Z M11.6,68.57 C12.92,68.57 13.34,68.63 13.37,68.96 C13.43,69.71 13.46,70.88 13.46,74.15 L13.46,83.06 C13.46,85.79 13.43,87.02 13.34,88.04 C13.31,88.61 12.86,88.73 11.66,88.76 L11.66,89.12 C12.32,89.12 13.31,89 14.03,89 C14.87,89.03 16.13,89.12 16.79,89.12 L16.85,88.76 C15.41,88.73 15.14,88.58 15.11,88.01 C15.05,87.41 15.02,86.33 15.02,84.62 L15.02,80.48 C15.02,79.94 15.05,79.55 15.35,79.01 C16.16,77.6 17.42,76.85 19.07,76.85 C20.33,76.85 21.08,77.45 21.44,78.32 C21.68,78.8 21.77,79.25 21.77,83.12 C21.77,85.67 21.65,87.44 21.59,88.04 C21.5,88.55 21.32,88.7 19.85,88.76 L19.85,89.12 C20.6,89.12 21.44,89 22.43,89 C23.18,89 24.26,89.12 25.04,89.12 L25.16,88.76 C23.54,88.67 23.33,88.58 23.33,87.98 L23.33,79.79 C23.33,78.8 23.21,78.08 22.91,77.48 C22.61,76.88 21.71,76.01 19.94,76.01 C17.87,76.01 16.1,77.27 15.02,78.65 L15.02,74.15 C15.02,71.06 15.11,69.29 15.17,68 C14.48,68.12 12.74,68.27 11.57,68.27 L11.6,68.57 Z M36.98,85.73 L36.68,85.55 C35.96,87.44 35,88.61 32.63,88.61 C31.25,88.61 30.26,88.04 29.54,86.96 C28.91,86.03 28.4,84.14 28.49,82.13 L32.33,82.13 C34.34,82.1 36.02,81.98 36.5,81.83 C36.83,81.71 36.95,81.2 36.95,80.66 C36.95,79.37 36.26,76.01 32.39,76.01 C28.49,76.01 26.69,79.37 26.69,83 C26.69,84.59 27.08,86.24 27.71,87.23 C28.64,88.67 30.05,89.39 32.15,89.39 C34.7,89.39 36.23,88.04 36.98,85.73 L36.98,85.73 Z M32.24,76.43 C34.61,76.43 35.27,78.74 35.27,80.45 C35.27,81.08 35.12,81.38 34.67,81.47 C34.16,81.59 33.05,81.68 31.4,81.68 L28.55,81.68 C28.73,79.1 29.72,76.43 32.21,76.43 L32.24,76.43 Z M39.38,80.3 C39.56,79.67 39.71,78.98 39.95,78.32 C40.34,77.24 40.94,77.06 42.11,76.97 C43.46,76.85 45.05,76.85 46.76,76.85 C45.83,78.77 42.44,84.02 38.6,88.76 L38.87,89.06 C39.35,89.03 40.22,89 41.75,89 C44.51,89 47.6,89.06 48.68,89.18 C48.8,87.56 49.07,85.85 49.22,85.01 L48.92,84.95 C48.35,87.77 47.66,88.16 46.85,88.34 C46.19,88.49 44.21,88.61 40.82,88.61 C42.86,85.43 47.48,78.59 47.93,77.99 C48.32,77.39 48.65,76.76 48.74,76.34 C47.9,76.34 47.03,76.4 44.66,76.4 L42.32,76.4 C40.73,76.4 39.86,76.34 39.38,76.1 C39.41,78.2 39.17,79.76 39.05,80.39 L39.38,80.3 Z M50.36,76.85 L52.16,77 L52.16,83.12 C52.16,85.37 52.1,87.2 52.01,88.04 C51.98,88.52 51.8,88.7 50.36,88.76 L50.33,89.12 C51.2,89.12 52.79,89.03 53.93,89.03 C55.13,89.03 56.75,89.12 57.56,89.12 L57.65,88.76 C57.14,88.73 56.63,88.67 56.27,88.61 C55.79,88.58 55.61,88.31 55.61,87.74 C55.55,86.72 55.52,85.19 55.52,82.25 C55.52,80.21 55.55,78.44 55.58,77.03 L57.92,76.85 L58.07,76.4 L55.61,76.4 C55.55,73.61 55.46,71.81 55.49,70.94 C55.61,69.59 56.06,68.84 56.84,68.84 C57.86,68.84 58.04,69.86 58.01,71.15 C58.01,71.63 58.25,71.9 58.79,71.9 C59.84,71.9 60.38,71.24 60.38,70.52 C60.38,69.53 59.63,68.33 57.29,68.33 C55.88,68.33 54.65,68.96 53.69,69.98 C52.64,71.12 52.19,72.74 52.19,74.9 L52.19,76.4 L50.42,76.4 L50.36,76.85 Z M70.31,85.46 L69.95,85.28 C69.23,87.2 68.21,88.4 66.11,88.4 C64.61,88.4 63.71,87.77 63.11,86.57 C62.6,85.58 62.27,84.08 62.33,82.46 L65.72,82.46 C68.09,82.43 69.41,82.28 69.86,82.13 C70.13,81.98 70.31,81.5 70.31,80.96 C70.31,79.61 69.71,75.98 65.06,75.98 C60.77,75.98 58.7,79.16 58.7,82.94 C58.7,84.71 59.15,86.39 59.93,87.41 C60.95,88.7 62.45,89.42 64.85,89.42 C67.52,89.42 69.47,88.19 70.31,85.46 L70.31,85.46 Z M65,76.43 C66.86,76.43 67.19,79.25 67.19,80.63 C67.19,81.32 66.98,81.71 66.59,81.8 C66.2,81.92 65.48,81.98 64.4,81.98 L62.36,81.98 C62.48,78.86 63.32,76.43 64.97,76.43 L65,76.43 Z M64.13,74.66 C65.75,73.13 66.92,72.08 67.55,71.48 C68.06,70.97 68.51,70.37 68.51,69.89 C68.51,69.35 68.3,69.02 67.88,69.02 C67.37,69.02 66.86,69.35 66.44,70.04 C65.99,70.76 64.43,73.52 63.83,74.48 L64.13,74.66 Z M71.45,69.11 C72.86,69.11 73.01,69.2 73.07,69.74 C73.1,70.49 73.13,71.45 73.13,74.51 L73.13,81.89 C73.13,84.8 73.01,87.14 72.98,87.74 C72.92,88.55 72.68,88.73 71.36,88.76 L71.36,89.12 C71.96,89.12 73.25,89.03 74.78,89.03 C75.74,89.03 77.3,89.12 78.14,89.12 L78.2,88.76 C76.82,88.7 76.58,88.61 76.55,87.8 C76.49,87.11 76.49,85.85 76.49,82.49 L76.49,74.96 C76.49,71.3 76.58,69.41 76.64,68.33 C75.2,68.51 73.16,68.75 71.48,68.75 L71.45,69.11 Z M82.4,70.01 C81.44,70.01 80.72,70.73 80.72,71.78 C80.72,72.77 81.44,73.4 82.31,73.4 C83.3,73.4 84.08,72.74 84.08,71.75 C84.08,70.67 83.51,70.01 82.43,70.01 L82.4,70.01 Z M85.82,88.76 C84.53,88.67 84.35,88.55 84.29,87.89 C84.23,87.2 84.2,86.45 84.2,84.29 L84.2,80.84 C84.2,78.17 84.26,76.76 84.29,76.01 C82.79,76.37 80.81,76.52 79.25,76.58 L79.22,76.94 C80.45,76.88 80.69,77 80.75,77.45 C80.81,77.9 80.84,79.22 80.84,80.87 L80.84,84.29 C80.84,86.21 80.78,87.35 80.72,87.89 C80.69,88.46 80.48,88.7 79.1,88.76 L79.07,89.12 C79.88,89.12 80.63,89.03 82.28,89.03 C83.9,89.03 84.98,89.12 85.79,89.12 L85.82,88.76 Z M86.63,76.67 C87.77,76.73 88.16,76.88 88.64,77.63 C89.66,79.22 90.74,81.23 91.91,83.21 C91.01,84.5 89.51,86.54 88.82,87.35 C88.04,88.25 87.53,88.67 86.12,88.76 L86.12,89.12 C86.66,89.12 87.41,89.03 88.37,89.03 C89.21,89.03 90.32,89.12 91.16,89.12 L91.25,88.76 L90.11,88.64 C89.48,88.58 89.36,88.37 89.6,87.86 C90.11,86.87 91.1,85.37 92.18,83.72 C92.96,85.13 93.89,86.75 94.52,87.92 C94.67,88.28 94.73,88.58 94.25,88.67 L93.56,88.76 L93.62,89.12 C94.82,89.09 95.96,89.03 97.13,89.03 C98.57,89.03 99.83,89.12 100.58,89.12 L100.61,88.76 C99.32,88.67 99.08,88.52 98.66,88.04 C97.97,87.17 96.29,84.44 94.52,81.29 C95.57,79.73 96.71,78.29 97.43,77.57 C98.09,76.94 98.54,76.79 99.83,76.67 L99.89,76.31 C99.35,76.31 98.27,76.4 97.43,76.4 C96.41,76.4 95.63,76.31 95.06,76.31 L95,76.67 L95.99,76.82 C96.44,76.88 96.62,76.94 96.41,77.36 C96.14,77.93 95.3,79.28 94.22,80.84 C93.68,79.79 92.9,78.53 92.27,77.36 C92.12,77.06 92.06,76.82 92.54,76.76 L93.26,76.67 L93.17,76.31 C92,76.34 91.07,76.37 89.84,76.4 C88.7,76.43 87.35,76.31 86.63,76.31 L86.63,76.67 Z" id="chezfélix" sketch:type="MSShapeGroup"></path>
        </g>
    </g>
</svg>