<?xml version="1.0" encoding="UTF-8" standalone="no"?>
<svg width="132px" height="57px" viewBox="0 0 132 57" version="1.1" xmlns="http://www.w3.org/2000/svg" xmlns:xlink="http://www.w3.org/1999/xlink" xmlns:sketch="http://www.bohemiancoding.com/sketch/ns">
    <!-- Generator: Sketch 3.2.2 (9983) - http://www.bohemiancoding.com/sketch -->
    <title>logotype_chez_felix_horizontal</title>
    <desc>Created with Sketch.</desc>
    <defs></defs>
    <g id="Page-1" stroke="none" stroke-width="1" fill="none" fill-rule="evenodd" sketch:type="MSPage">
        <g id="logotype_chez_felix_horizontal" sketch:type="MSLayerGroup" transform="translate(-1.000000, 0.000000)" fill="#22272A">
            <path d="M1,42.9775785 L1,57 L13.0500091,57 L13.0500091,57 C13.0172151,56.838445 13,56.6712329 13,56.5 C13,55.1192881 14.1192881,54 15.5,54 C16.8807119,54 18,55.1192881 18,56.5 C18,56.6712329 17.9827849,56.838445 17.9499909,57 L20,57 L20,0 L10,0 C10,1.65685425 8.65685425,3 7,3 C5.34314575,3 4,1.65685425 4,0 L4,0 L1,0 L1,32.0224215 C1.16468102,32.0075813 1.33145515,32 1.5,32 C4.53756612,32 7,34.4624339 7,37.5 C7,40.5375661 4.53756612,43 1.5,43 C1.33145515,43 1.16468102,42.9924187 1,42.9775785 Z M13.5,24 C14.3284271,24 15,23.3284271 15,22.5 C15,21.6715729 14.3284271,21 13.5,21 C12.6715729,21 12,21.6715729 12,22.5 C12,23.3284271 12.6715729,24 13.5,24 Z" id="Rectangle-1" sketch:type="MSShapeGroup"></path>
            <path d="M42.22,35.52 C41.65,37.35 40.54,38.64 38.29,38.64 C36.76,38.64 35.59,38.01 34.81,36.75 C34.21,35.7 33.91,34.32 33.91,32.73 C33.91,29.37 35.17,26.43 38.23,26.43 C40.09,26.43 40.9,27.42 40.9,28.92 C40.9,29.1 40.84,29.49 40.78,29.7 C40.75,29.91 40.84,30.09 40.96,30.18 C41.08,30.27 41.26,30.3 41.41,30.3 C42.01,30.3 42.34,29.79 42.34,29.19 C42.34,27.03 40.42,26.01 38.2,26.01 C33.97,26.01 32.05,29.52 32.05,32.91 C32.05,35.16 32.56,36.66 33.46,37.71 C34.39,38.82 35.68,39.39 37.6,39.39 C40.03,39.39 41.95,38.07 42.58,35.7 L42.22,35.52 Z M43.6,18.57 C44.92,18.57 45.34,18.63 45.37,18.96 C45.43,19.71 45.46,20.88 45.46,24.15 L45.46,33.06 C45.46,35.79 45.43,37.02 45.34,38.04 C45.31,38.61 44.86,38.73 43.66,38.76 L43.66,39.12 C44.32,39.12 45.31,39 46.03,39 C46.87,39.03 48.13,39.12 48.79,39.12 L48.85,38.76 C47.41,38.73 47.14,38.58 47.11,38.01 C47.05,37.41 47.02,36.33 47.02,34.62 L47.02,30.48 C47.02,29.94 47.05,29.55 47.35,29.01 C48.16,27.6 49.42,26.85 51.07,26.85 C52.33,26.85 53.08,27.45 53.44,28.32 C53.68,28.8 53.77,29.25 53.77,33.12 C53.77,35.67 53.65,37.44 53.59,38.04 C53.5,38.55 53.32,38.7 51.85,38.76 L51.85,39.12 C52.6,39.12 53.44,39 54.43,39 C55.18,39 56.26,39.12 57.04,39.12 L57.16,38.76 C55.54,38.67 55.33,38.58 55.33,37.98 L55.33,29.79 C55.33,28.8 55.21,28.08 54.91,27.48 C54.61,26.88 53.71,26.01 51.94,26.01 C49.87,26.01 48.1,27.27 47.02,28.65 L47.02,24.15 C47.02,21.06 47.11,19.29 47.17,18 C46.48,18.12 44.74,18.27 43.57,18.27 L43.6,18.57 Z M68.98,35.73 L68.68,35.55 C67.96,37.44 67,38.61 64.63,38.61 C63.25,38.61 62.26,38.04 61.54,36.96 C60.91,36.03 60.4,34.14 60.49,32.13 L64.33,32.13 C66.34,32.1 68.02,31.98 68.5,31.83 C68.83,31.71 68.95,31.2 68.95,30.66 C68.95,29.37 68.26,26.01 64.39,26.01 C60.49,26.01 58.69,29.37 58.69,33 C58.69,34.59 59.08,36.24 59.71,37.23 C60.64,38.67 62.05,39.39 64.15,39.39 C66.7,39.39 68.23,38.04 68.98,35.73 L68.98,35.73 Z M64.24,26.43 C66.61,26.43 67.27,28.74 67.27,30.45 C67.27,31.08 67.12,31.38 66.67,31.47 C66.16,31.59 65.05,31.68 63.4,31.68 L60.55,31.68 C60.73,29.1 61.72,26.43 64.21,26.43 L64.24,26.43 Z M71.38,30.3 C71.56,29.67 71.71,28.98 71.95,28.32 C72.34,27.24 72.94,27.06 74.11,26.97 C75.46,26.85 77.05,26.85 78.76,26.85 C77.83,28.77 74.44,34.02 70.6,38.76 L70.87,39.06 C71.35,39.03 72.22,39 73.75,39 C76.51,39 79.6,39.06 80.68,39.18 C80.8,37.56 81.07,35.85 81.22,35.01 L80.92,34.95 C80.35,37.77 79.66,38.16 78.85,38.34 C78.19,38.49 76.21,38.61 72.82,38.61 C74.86,35.43 79.48,28.59 79.93,27.99 C80.32,27.39 80.65,26.76 80.74,26.34 C79.9,26.34 79.03,26.4 76.66,26.4 L74.32,26.4 C72.73,26.4 71.86,26.34 71.38,26.1 C71.41,28.2 71.17,29.76 71.05,30.39 L71.38,30.3 Z M82.36,26.85 L84.16,27 L84.16,33.12 C84.16,35.37 84.1,37.2 84.01,38.04 C83.98,38.52 83.8,38.7 82.36,38.76 L82.33,39.12 C83.2,39.12 84.79,39.03 85.93,39.03 C87.13,39.03 88.75,39.12 89.56,39.12 L89.65,38.76 C89.14,38.73 88.63,38.67 88.27,38.61 C87.79,38.58 87.61,38.31 87.61,37.74 C87.55,36.72 87.52,35.19 87.52,32.25 C87.52,30.21 87.55,28.44 87.58,27.03 L89.92,26.85 L90.07,26.4 L87.61,26.4 C87.55,23.61 87.46,21.81 87.49,20.94 C87.61,19.59 88.06,18.84 88.84,18.84 C89.86,18.84 90.04,19.86 90.01,21.15 C90.01,21.63 90.25,21.9 90.79,21.9 C91.84,21.9 92.38,21.24 92.38,20.52 C92.38,19.53 91.63,18.33 89.29,18.33 C87.88,18.33 86.65,18.96 85.69,19.98 C84.64,21.12 84.19,22.74 84.19,24.9 L84.19,26.4 L82.42,26.4 L82.36,26.85 Z M102.31,35.46 L101.95,35.28 C101.23,37.2 100.21,38.4 98.11,38.4 C96.61,38.4 95.71,37.77 95.11,36.57 C94.6,35.58 94.27,34.08 94.33,32.46 L97.72,32.46 C100.09,32.43 101.41,32.28 101.86,32.13 C102.13,31.98 102.31,31.5 102.31,30.96 C102.31,29.61 101.71,25.98 97.06,25.98 C92.77,25.98 90.7,29.16 90.7,32.94 C90.7,34.71 91.15,36.39 91.93,37.41 C92.95,38.7 94.45,39.42 96.85,39.42 C99.52,39.42 101.47,38.19 102.31,35.46 L102.31,35.46 Z M97,26.43 C98.86,26.43 99.19,29.25 99.19,30.63 C99.19,31.32 98.98,31.71 98.59,31.8 C98.2,31.92 97.48,31.98 96.4,31.98 L94.36,31.98 C94.48,28.86 95.32,26.43 96.97,26.43 L97,26.43 Z M96.13,24.66 C97.75,23.13 98.92,22.08 99.55,21.48 C100.06,20.97 100.51,20.37 100.51,19.89 C100.51,19.35 100.3,19.02 99.88,19.02 C99.37,19.02 98.86,19.35 98.44,20.04 C97.99,20.76 96.43,23.52 95.83,24.48 L96.13,24.66 Z M103.45,19.11 C104.86,19.11 105.01,19.2 105.07,19.74 C105.1,20.49 105.13,21.45 105.13,24.51 L105.13,31.89 C105.13,34.8 105.01,37.14 104.98,37.74 C104.92,38.55 104.68,38.73 103.36,38.76 L103.36,39.12 C103.96,39.12 105.25,39.03 106.78,39.03 C107.74,39.03 109.3,39.12 110.14,39.12 L110.2,38.76 C108.82,38.7 108.58,38.61 108.55,37.8 C108.49,37.11 108.49,35.85 108.49,32.49 L108.49,24.96 C108.49,21.3 108.58,19.41 108.64,18.33 C107.2,18.51 105.16,18.75 103.48,18.75 L103.45,19.11 Z M114.4,20.01 C113.44,20.01 112.72,20.73 112.72,21.78 C112.72,22.77 113.44,23.4 114.31,23.4 C115.3,23.4 116.08,22.74 116.08,21.75 C116.08,20.67 115.51,20.01 114.43,20.01 L114.4,20.01 Z M117.82,38.76 C116.53,38.67 116.35,38.55 116.29,37.89 C116.23,37.2 116.2,36.45 116.2,34.29 L116.2,30.84 C116.2,28.17 116.26,26.76 116.29,26.01 C114.79,26.37 112.81,26.52 111.25,26.58 L111.22,26.94 C112.45,26.88 112.69,27 112.75,27.45 C112.81,27.9 112.84,29.22 112.84,30.87 L112.84,34.29 C112.84,36.21 112.78,37.35 112.72,37.89 C112.69,38.46 112.48,38.7 111.1,38.76 L111.07,39.12 C111.88,39.12 112.63,39.03 114.28,39.03 C115.9,39.03 116.98,39.12 117.79,39.12 L117.82,38.76 Z M118.63,26.67 C119.77,26.73 120.16,26.88 120.64,27.63 C121.66,29.22 122.74,31.23 123.91,33.21 C123.01,34.5 121.51,36.54 120.82,37.35 C120.04,38.25 119.53,38.67 118.12,38.76 L118.12,39.12 C118.66,39.12 119.41,39.03 120.37,39.03 C121.21,39.03 122.32,39.12 123.16,39.12 L123.25,38.76 L122.11,38.64 C121.48,38.58 121.36,38.37 121.6,37.86 C122.11,36.87 123.1,35.37 124.18,33.72 C124.96,35.13 125.89,36.75 126.52,37.92 C126.67,38.28 126.73,38.58 126.25,38.67 L125.56,38.76 L125.62,39.12 C126.82,39.09 127.96,39.03 129.13,39.03 C130.57,39.03 131.83,39.12 132.58,39.12 L132.61,38.76 C131.32,38.67 131.08,38.52 130.66,38.04 C129.97,37.17 128.29,34.44 126.52,31.29 C127.57,29.73 128.71,28.29 129.43,27.57 C130.09,26.94 130.54,26.79 131.83,26.67 L131.89,26.31 C131.35,26.31 130.27,26.4 129.43,26.4 C128.41,26.4 127.63,26.31 127.06,26.31 L127,26.67 L127.99,26.82 C128.44,26.88 128.62,26.94 128.41,27.36 C128.14,27.93 127.3,29.28 126.22,30.84 C125.68,29.79 124.9,28.53 124.27,27.36 C124.12,27.06 124.06,26.82 124.54,26.76 L125.26,26.67 L125.17,26.31 C124,26.34 123.07,26.37 121.84,26.4 C120.7,26.43 119.35,26.31 118.63,26.31 L118.63,26.67 Z" id="chezfélix" sketch:type="MSShapeGroup"></path>
        </g>
    </g>
</svg>